<svg xmlns="http://www.w3.org/2000/svg" width="102" height="36" viewBox="0 0 102 36">
    <g fill="none" fill-rule="evenodd">
        <g>
            <path fill="#95D600" fill-rule="nonzero" d="M24.907 27.59L.229 31.57c-.132.02-.229.137-.229.272v3.881c0 .17.15.3.314.273l24.678-3.978c.131-.022.229-.138.229-.273v-3.882c0-.17-.15-.3-.314-.273"/>
            <path fill="#233746" d="M71.827 14.824c4.34 0 6.301 1.883 6.386 5.281l.003.234v6.728c0 1.116.323 1.61.93 1.919l.032.016.027.013-.005-.002-.011-.006.057.024c.108.046.172.152.165.262l-.012.066-.723 2.195c-.04.123-.165.201-.299.187-.087-.01-.182-.021-.246-.03-1.56-.22-2.586-.933-3.188-2.34-1.164 1.697-2.99 2.394-4.973 2.394-3.336 0-5.382-2.03-5.382-4.94 0-3.41 2.62-5.282 7.272-5.362l.313-.003h2.078v-.909c0-2.09-.976-2.788-3.116-2.788-1.032 0-2.455.251-3.96.708l-.182.057c-.125.04-.259-.01-.326-.113l-.027-.055-.768-2.138c-.05-.14.027-.294.173-.343l.15-.051c1.916-.662 3.87-1.004 5.632-1.004zM36.757 8.47c3.697 0 8.69.98 8.69 6.97 0 3.725-1.933 5.511-4.283 6.33l-.197.066 5.582 9.508c.097.164.005.368-.165.411l-.067.009h-4.365c-.079 0-.152-.035-.203-.095l-.033-.048-4.96-9.195H33.99v9.06c0 .132-.09.242-.209.27l-.062.008h-3.802c-.128 0-.235-.091-.263-.214l-.007-.063V8.748c0-.132.089-.241.208-.27l.062-.007h6.84zm18.831 6.353c4.386 0 7.941 2.633 7.941 8.47 0 5.837-3.555 8.47-7.94 8.47-4.387 0-7.942-2.633-7.942-8.47 0-5.837 3.555-8.47 7.941-8.47zM92.672 8.47l.063.003 3.383.52c.113.018.2.1.227.203l.008.065v21.72c0 .128-.092.236-.215.264l-.064.007H92.94c-.116 0-.217-.07-.259-.17l-.017-.064-.25-1.746c-1.001 1.458-2.471 2.492-4.598 2.492-4.128 0-6.286-3.374-6.286-8.48 0-4.953 2.533-8.51 6.724-8.51 1.59 0 2.885.625 3.96 1.605l.2.188V8.742c0-.125.086-.228.2-.26l.06-.01zm6.862 19.17c1.116 0 2.02.905 2.02 2.02 0 1.116-.904 2.02-2.02 2.02-1.115 0-2.02-.904-2.02-2.02 0-1.115.905-2.02 2.02-2.02zm0 .336c-.93 0-1.684.754-1.684 1.684 0 .93.754 1.685 1.684 1.685.93 0 1.685-.754 1.685-1.685 0-.93-.754-1.684-1.685-1.684zm.048.576c.271 0 .48.06.627.181.147.121.221.292.221.513 0 .156-.034.287-.102.391-.067.105-.17.188-.308.25l.497.938v.022h-.508l-.43-.84h-.377v.84h-.473v-2.295h.853zm0 .383h-.38v.69h.381c.12 0 .211-.031.276-.092.065-.06.098-.143.098-.25 0-.108-.03-.193-.092-.255s-.156-.093-.283-.093zM74.25 23.733h-1.669c-2.612 0-3.902.91-3.902 2.789 0 1.545.818 2.424 2.36 2.424 1.338 0 2.339-.622 3.082-1.763l.129-.207v-3.243zm-18.663-5.97c-2.007 0-3.635 1.227-3.635 5.53 0 4.305 1.628 5.532 3.635 5.532 2.008 0 3.635-1.227 3.635-5.531 0-4.304-1.627-5.53-3.635-5.53zm33.635-.07c-2.096 0-3.472 1.702-3.472 5.562 0 4.133 1.22 5.562 3.19 5.562 1.457 0 2.427-.705 3.323-1.942l.149-.211v-7.197c-.876-1.034-1.75-1.774-3.19-1.774zM4.1 0c.13 0 .238.092.267.215l.007.064v9.207c0 .15.116.269.256.278l.061-.003 7.645-1.23c.11-.019.197-.103.223-.21l.008-.066V.279c0-.132.09-.243.212-.272L12.842 0h3.825c.13 0 .238.092.267.215l.007.064v22.736c0 .132-.09.243-.211.272l-.063.007h-3.825c-.13 0-.24-.092-.268-.215l-.007-.064v-9.692c0-.15-.115-.27-.256-.279l-.061.003-7.644 1.231c-.111.018-.198.102-.224.21l-.008.066v8.46c0 .133-.09.244-.212.273l-.062.007H.274c-.13 0-.238-.092-.267-.215L0 23.015V.279C0 .147.09.036.211.007L.274 0H4.1zm21.046 8.47c.126 0 .231.093.259.216l.007.064v14.264c0 .133-.088.244-.205.273l-.061.007h-3.704c-.126 0-.23-.092-.258-.215l-.008-.065V8.75c0-.132.088-.243.205-.272l.061-.007h3.704zm11.291 3.238H33.99v7.482h2.447c1.985 0 4.664-.527 4.664-3.741 0-3.215-2.679-3.741-4.664-3.741zM26.257.21V5.1h-4.89V.21h4.89z"/>
        </g>
    </g>
</svg>
