<svg id="Layer_1" data-name="Layer 1" xmlns="http://www.w3.org/2000/svg" xmlns:xlink="http://www.w3.org/1999/xlink" viewBox="0 0 169.36 36.72"><defs><style>.cls-1{fill:none;}.cls-2{clip-path:url(#clip-path);}.cls-3{clip-path:url(#clip-path-2);}.cls-4{fill:#333;}</style><clipPath id="clip-path"><rect class="cls-1" width="169.36" height="36.72"></rect></clipPath><clipPath id="clip-path-2"><rect class="cls-1" width="169.36" height="36.72"></rect></clipPath></defs><g id="PCWorld_Reverse_" data-name="PCWorld (Reverse)"><g class="cls-2"><g class="cls-3"><path class="cls-4" d="M6.15,25v11H0V2.4H9.52c9.32,0,14.42,1.45,14.42,10.67,0,9.67-7,11.93-11.78,11.93Zm0-17.45V19.23h5.19c4.47,0,6.35-1.54,6.35-6.11,0-3.84-1.35-5.57-6.49-5.57Z"></path><path class="cls-4" d="M25.16,19.23c0-10.58,7-17.5,16.59-17.5a23,23,0,0,1,9.56,2l-.67,5.87a22.49,22.49,0,0,0-8.89-1.93c-6.54,0-9.86,4.86-9.86,11.59s3.32,11.58,9.86,11.58a22.66,22.66,0,0,0,8.89-1.92l.67,5.86a22.88,22.88,0,0,1-9.56,2c-9.61,0-16.59-6.92-16.59-17.49"></path><polygon class="cls-4" points="87.97 36.05 82.53 36.05 75.03 13.6 67.58 36.05 61.77 36.05 52.3 2.4 58.69 2.4 65.42 26.29 72.92 2.4 77.2 2.4 84.98 25.67 91.43 2.4 97.82 2.4 87.97 36.05"></polygon><path class="cls-4" d="M94.54,24.08c0-6.73,4.47-12.45,12.16-12.45s12.16,5.72,12.16,12.45-4.47,12.45-12.16,12.45S94.54,30.81,94.54,24.08m6.1,0c0,4.47,2.21,7.55,6.06,7.55s6-3.08,6-7.55-2.21-7.54-6-7.54-6.06,3.07-6.06,7.54"></path><path class="cls-4" d="M133.81,17.26H131.6a4.9,4.9,0,0,0-4.37,2.4V36.05h-6V12h5.58l.15,2.55a9.42,9.42,0,0,1,6.39-2.94H135Z"></path><path class="cls-4" d="M144.82,36.53h-2.17c-4.27,0-6.15-2.83-6.15-6.3V0h6V27.78c0,3.85.53,3.85,2.89,3.85Z"></path><path class="cls-4" d="M163.73,36.05l-.09-1.34a9.4,9.4,0,0,1-5.87,1.82c-7.69,0-11.77-5.72-11.77-12.45s4.08-12.45,11.77-12.45a9.51,9.51,0,0,1,5.63,1.59V0h6V36.05Zm-11.63-12c0,4.47,2.21,7.55,6.06,7.55s5.53-3.08,5.53-7.55-1.69-7.54-5.53-7.54-6.06,3.07-6.06,7.54"></path></g></g></g></svg>