<svg xmlns="http://www.w3.org/2000/svg" xmlns:xlink="http://www.w3.org/1999/xlink" version="1.1" id="Layer_1" x="0px" y="0px" width="305" height="49" viewBox="0 0 610 98" style="enable-background:new 0 0 610 98; fill: #333;" xml:space="preserve">
<g>
	<path d="M0,96.64V1.35h33.16c22.93,0,38.62,5.27,38.62,26.63c0,14.6-8.6,20.55-19.38,22.3v3.51h12.15c5.87,0,8.46,2.7,8.46,8.25   v34.6H59.5V59.34H13.51v37.31H0z M13.51,47.98h19.65c15.56,0,25.11-1.35,25.11-17.57c0-16.49-9.55-17.57-25.11-17.57H13.51V47.98z"/>
	<path d="M90.35,96.64V1.35h61.55v11.49h-48.04v30.41h41.22v11.35h-41.22v30.55h48.04v11.49H90.35z"/>
	<path d="M178.01,98c-5.73,0.13-9.01-3.11-9.01-8.79V1.35h13.51v85.15l48.04-1.35v11.49L178.01,98z"/>
	<path d="M262.45,12.84v72.31v11.49h-13.37V85.15V12.84V1.35h13.37V12.84z"/>
	<path d="M401.45,12.84v72.31v11.49h-13.37V85.15V12.84V1.35h13.37V12.84z"/>
	<path d="M325.17,0c24.16,0,39.31,14.6,41.22,35.41h-13.37c-1.23-14.73-10.65-23.92-27.84-23.92c-21.29,0-31.94,15.14-31.94,37.44   c0,22.44,8.33,37.58,30.16,37.58c21.15,0,32.48-9.46,32.48-30.68h-36.17V45.28h40.67c6.01,0,8.87,2.84,8.87,8.38v42.98h-13.38   V84.61l2.18-9.6h-3.55c-2.05,10-10.1,22.98-32.35,22.98c-28.11,0-42.45-20.82-42.45-49.07C279.72,20.82,297.33,0,325.17,0z"/>
	<path d="M463.56,0c28.66,0,45.72,21.22,45.72,48.93c0,27.84-17.06,49.07-45.72,49.07c-28.8,0-45.86-21.22-45.86-49.07   C417.7,21.22,434.76,0,463.56,0z M463.56,86.51c21.7,0,32.35-15.68,32.35-37.58c0-21.76-10.65-37.44-32.35-37.44   c-21.7,0-32.35,15.68-32.35,37.44C431.21,70.83,441.86,86.51,463.56,86.51z"/>
	<path d="M524.29,96.64V1.35h26.89l43.95,91.64h3.69l-2.32-9.06V1.35H610v95.29h-26.89L539.17,5h-3.69l2.32,9.06v82.59H524.29z"/>
</g>
</svg>