<svg width="389" height="33" viewBox="0 0 259 22" fill="none" xmlns="http://www.w3.org/2000/svg">
<path fill-rule="evenodd" clip-rule="evenodd" d="M71.0437 10.2666H80.0919C81.4124 10.2666 82.0618 10.8067 82.0618 12.0382V21.5873H79.0746V18.9084L79.5724 16.7479H78.7715C78.4603 18.356 77.5506 19.7869 76.2254 20.7528C74.9002 21.7187 73.2577 22.1481 71.6282 21.9546C65.3723 21.9546 62.1903 17.2664 62.1903 10.9795C62.1903 4.69265 66.1084 0.0260859 72.2776 0.0260859C73.4022 -0.0621042 74.5332 0.0738386 75.6047 0.425993C76.6762 0.778148 77.6668 1.33949 78.5189 2.07734C79.371 2.81519 80.0676 3.71482 80.568 4.72388C81.0685 5.73293 81.3628 6.83125 81.434 7.95492H78.4685C78.4353 7.19254 78.2445 6.44524 77.908 5.76004C77.5715 5.07484 77.0965 4.46657 76.513 3.97347C75.9294 3.48037 75.25 3.11312 74.5174 2.89483C73.7847 2.67654 73.0148 2.61192 72.2559 2.70504C67.537 2.70504 65.1775 6.05373 65.1775 11.0876C65.1775 16.1214 67.169 19.4917 71.8663 19.4917C76.5636 19.4917 79.0746 17.3744 79.0746 12.6431H71.0437V10.2666ZM33.7901 21.6521H20.1311V0.328552H33.7901V2.89948H23.1183V9.70488H32.2748V12.2542H23.1183V19.0812H33.7901V21.6521ZM11.6891 12.0814H14.3949C15.6937 12.0814 16.2781 12.6863 16.2132 13.9177V21.6521H13.2044V13.3128H2.98722V21.6521H0V0.328554H7.35978C12.5333 0.328554 16.0184 1.51679 16.0184 6.29137C16.0715 6.90459 16.0008 7.52221 15.8105 8.10769C15.6203 8.69316 15.3142 9.23459 14.9105 9.69992C14.5069 10.1652 14.0138 10.545 13.4605 10.8168C12.9071 11.0885 12.3048 11.2467 11.6891 11.282V12.0814ZM3.05216 2.89948V10.7635H7.38145C10.8016 10.7635 12.9662 10.5042 12.9662 6.83148C12.9662 3.15873 10.8449 2.89948 7.38145 2.89948H3.05216ZM40.5875 0.328552H37.5786V19.9886C37.546 20.2584 37.5761 20.532 37.6664 20.7884C37.7567 21.0448 37.9049 21.277 38.0995 21.467C38.2941 21.6571 38.5299 21.7999 38.7887 21.8845C39.0474 21.969 39.3223 21.993 39.5918 21.9546L51.2592 21.6521V19.0812L40.5875 19.3837V0.328552ZM55.3717 19.0812V2.89948V0.328552H58.3372V2.89948V19.0812V21.6521H55.3717V19.0812ZM86.2397 2.89948V19.0812V21.6521H89.2053V19.0812V2.89948V0.328552H86.2397V2.89948ZM102.994 0.0260925C96.6085 0.0260925 92.8204 4.77907 92.8204 10.9795C92.8204 17.18 96.6085 21.9546 102.994 21.9546C109.38 21.9546 113.103 17.2232 113.103 10.9795C113.103 4.73587 109.358 0.0260925 102.994 0.0260925ZM102.994 19.4701C98.167 19.4701 95.8076 15.9702 95.8076 11.066C95.8076 6.16175 98.167 2.68344 102.994 2.68344C107.821 2.68344 110.181 6.20496 110.181 11.066C110.181 15.927 107.821 19.3837 102.994 19.3837V19.4701ZM132.52 18.8003V0.328552H135.507V21.6521H129.554L119.792 1.14952H118.969L119.488 3.18034V21.6521H116.48V0.328552H122.454L132.217 20.8312H133.039L132.52 18.8003ZM231.942 2.89948V19.0812V21.6521H234.929V19.0812V2.89948V0.328552H231.942V2.89948ZM152.543 5.36239C152.543 7.35 154.123 8.04134 157.608 9.16477C157.877 9.24855 158.149 9.33215 158.424 9.41645C162.401 10.6364 166.851 12.0017 166.851 16.1646C166.851 19.4485 164.817 21.9546 158.431 21.9546C150.941 21.9546 148.582 18.6923 148.582 13.6369H151.569C151.569 18.2818 154.037 19.3837 158.474 19.3837C162.003 19.3837 163.886 18.4331 163.886 16.2726C163.886 13.7214 161.087 12.9074 158.126 12.0462L158.126 12.0461C157.752 11.9374 157.376 11.8279 157.002 11.7141C152.716 10.4178 149.534 9.22959 149.534 5.384C149.534 2.03531 151.959 0.0260925 157.305 0.0260925C163.626 0.0260925 165.964 3.76366 165.964 7.3932H162.998C162.998 4.00131 160.422 2.59702 157.305 2.59702C154.513 2.59702 152.543 3.37478 152.543 5.36239ZM167.587 2.89948H174.946V21.6521H177.912V2.89948H185.229V0.328552H167.587V2.89948ZM209.971 0.328552H217.006C222.396 0.328552 227.829 1.77605 227.829 10.9795C227.829 20.183 222.309 21.6521 217.006 21.6521H209.971V0.328552ZM212.98 19.0812H217.006C220.881 19.0812 224.907 18.4763 224.907 10.9795C224.907 3.4828 220.794 2.89948 217.006 2.89948H212.98V19.0812ZM248.848 0.0260925C242.354 0.0260925 238.674 4.77907 238.674 10.9795C238.674 17.18 242.462 21.9546 248.848 21.9546C255.233 21.9546 259 17.2232 259 10.9795C259 4.73587 255.212 0.0260925 248.848 0.0260925ZM248.848 19.4701C244.042 19.4701 241.661 15.9702 241.661 11.066C241.661 6.16175 244.042 2.68344 248.848 2.68344C253.653 2.68344 255.969 6.11855 255.969 10.9795C255.969 15.8405 253.675 19.3837 248.848 19.3837V19.4701ZM196.701 19.3837C200.684 19.3837 202.849 16.7695 202.849 12.7727L202.871 0.328552H205.858V21.5873H202.871V19.146L203.39 16.7479H202.589C202.361 18.1801 201.635 19.4865 200.539 20.4384C199.443 21.3902 198.046 21.927 196.593 21.9546C192.459 21.9546 188.043 20.0318 188.411 12.7079V0.328552H191.42V13.4208C191.29 17.072 192.372 19.3837 196.701 19.3837Z" fill="black"/>
</svg>